<svg xmlns="http://www.w3.org/2000/svg" viewBox="0 0 300 300" width="300" height="300">
  <circle cx="150" cy="150" r="110" fill="none" stroke="#1a1d1f" stroke-width="2"/>
  <!-- 三角 9-3-6 -->
  <polygon points="150,40 245.3,205 54.7,205" fill="none" stroke="#1a1d1f" stroke-width="1.6"/>
  <!-- 六角 1-4-2-8-5-7 -->
  <polygon points="220.7,65.7 187.6,253.4 258.4,130.9 79.3,65.7 112.4,253.4 41.6,130.9"
           fill="none" stroke="#1a1d1f" stroke-width="1.6"/>
  <g font-family="PingFang SC, sans-serif" font-weight="800" font-size="22" fill="#1a1d1f" text-anchor="middle">
    <circle cx="150" cy="40"  r="15" fill="#fff" stroke="#1a1d1f" stroke-width="1.5"/><text x="150" y="47">9</text>
    <circle cx="220.7" cy="65.7" r="15" fill="#fff" stroke="#1a1d1f" stroke-width="1.5"/><text x="220.7" y="72.7">1</text>
    <circle cx="258.4" cy="130.9" r="15" fill="#fff" stroke="#1a1d1f" stroke-width="1.5"/><text x="258.4" y="137.9">2</text>
    <circle cx="245.3" cy="205" r="15" fill="#fff" stroke="#1a1d1f" stroke-width="1.5"/><text x="245.3" y="212">3</text>
    <circle cx="187.6" cy="253.4" r="15" fill="#fff" stroke="#1a1d1f" stroke-width="1.5"/><text x="187.6" y="260.4">4</text>
    <circle cx="112.4" cy="253.4" r="15" fill="#fff" stroke="#1a1d1f" stroke-width="1.5"/><text x="112.4" y="260.4">5</text>
    <circle cx="54.7" cy="205" r="15" fill="#fff" stroke="#1a1d1f" stroke-width="1.5"/><text x="54.7" y="212">6</text>
    <circle cx="41.6" cy="130.9" r="15" fill="#fff" stroke="#1a1d1f" stroke-width="1.5"/><text x="41.6" y="137.9">7</text>
    <circle cx="79.3" cy="65.7" r="15" fill="#fff" stroke="#1a1d1f" stroke-width="1.5"/><text x="79.3" y="72.7">8</text>
  </g>
</svg>
